<?xml version="1.0" standalone="no"?><!DOCTYPE svg PUBLIC "-//W3C//DTD SVG 1.1//EN" "http://www.w3.org/Graphics/SVG/1.1/DTD/svg11.dtd"><svg t="1573705044204" class="icon" viewBox="0 0 1024 1024" version="1.1" xmlns="http://www.w3.org/2000/svg" p-id="2315" xmlns:xlink="http://www.w3.org/1999/xlink" width="500" height="500"><defs><style type="text/css"></style></defs><path d="M806 287.7L568.6 714.1l17.3 99.3z" fill="#FFD524" p-id="2316"></path><path d="M580.3 280.4c3.3 0 6.7-0.7 10-2l7.6-3.2c13.2-5.5 19.4-20.7 13.8-33.9-5.5-13.2-20.7-19.4-33.9-13.8l-7.6 3.2c-13.2 5.5-19.4 20.7-13.8 33.9 4.2 9.8 13.8 15.8 23.9 15.8z" fill="#ffffff" p-id="2317" data-spm-anchor-id="a313x.7781069.0.i29" class="selected"></path><path d="M923.4 99.7c-7.4-7.4-18.6-9.6-28.3-5.5L649 197.6c-13.2 5.5-19.4 20.7-13.8 33.9 5.5 13.2 20.7 19.4 33.9 13.8l187.8-78.9L806 287.7 585.9 813.4l-17.4-99.3-33-189 150.1-136.6c10.6-9.6 11.3-26 1.7-36.5-9.6-10.6-26-11.3-36.5-1.7L499.6 487.9l-287.5-50.6 305.5-128.4c13.2-5.5 19.4-20.7 13.8-33.9-5.5-13.2-20.7-19.4-33.9-13.8L111 423.6c-10.6 4.4-17 15.3-15.7 26.7 1.3 11.4 9.9 20.6 21.2 22.6l368.8 64.9 64.9 371.5c2 11.3 11.2 20 22.6 21.3 1 0.1 1.9 0.2 2.9 0.2 10.3 0 19.8-6.2 23.8-15.9L929 128c4-9.7 1.8-20.9-5.6-28.3z" fill="#ffffff" p-id="2318" data-spm-anchor-id="a313x.7781069.0.i28" class="selected"></path></svg>