<?xml version="1.0" standalone="no"?><!DOCTYPE svg PUBLIC "-//W3C//DTD SVG 1.1//EN" "http://www.w3.org/Graphics/SVG/1.1/DTD/svg11.dtd"><svg t="1575016805146" class="icon" viewBox="0 0 1024 1024" version="1.1" xmlns="http://www.w3.org/2000/svg" p-id="1647" xmlns:xlink="http://www.w3.org/1999/xlink" width="500" height="500"><defs><style type="text/css"></style></defs><path d="M826.034343 194.391569c-84.398607-84.590519-196.617754-131.175588-315.964757-131.175588-119.362808 0-231.566151 46.585069-315.964757 131.162041S63.218239 391.406694 63.218239 511.011086c0 119.615681 46.487983 232.056092 130.88659 316.633064s196.601949 131.164299 315.964757 131.164299c119.347004 0 231.566151-46.587326 315.95121-131.164299 84.414411-84.576972 130.902394-197.017383 130.902395-316.633064-0.002258-119.604392-46.490241-232.056092-130.888848-316.619517z m-39.506883 593.675706c-73.841161 74.012753-172.028117 114.761423-276.457874 114.761424s-202.616713-40.74867-276.457874-114.774971c-73.870512-73.987917-114.535644-172.391621-114.535644-277.0449 0-104.664568 40.665132-203.050209 114.535644-277.049415 73.843418-74.00598 172.028117-114.770455 276.457874-114.770455s202.616713 40.764475 276.457874 114.770455c73.856965 73.999206 114.535644 172.384848 114.535644 277.049415 0 104.655536-40.678679 203.059241-114.535644 277.058447z" fill="#D85A51" p-id="1648"></path><path d="M727.33261 323.695445l-327.6511 341.462027-133.614005-158.235251a27.888274 27.888274 0 0 0-39.369159-3.291864c-11.767624 10.002028-13.228416 27.657979-3.260255 39.450439l153.604516 181.917255c5.08681 6.055404 12.533016 9.909459 20.428522 9.909459h0.887313c7.581673 0 14.849513-3.086405 20.128236-8.581876l349.104661-363.839026c10.690656-11.14673 10.349729-28.85461-0.765392-39.576876-11.128668-10.722265-28.802681-10.351987-39.493337 0.785713z" fill="#D85A51" p-id="1649"></path></svg>